<svg xmlns="http://www.w3.org/2000/svg" width="188" height="56" viewBox="0 0 188 56">
    <g fill="none" fill-rule="evenodd">
        <g fill-rule="nonzero">
            <g>
                <path fill="#171E28" d="M138.645 19.947c1.446-.68 3.027-1.025 4.626-1.011 3.29 0 6.553 1.406 6.553 5.793v12.549h-2.17V24.824c0-3.002-1.996-4.182-4.647-4.182-1.507 0-2.996.329-4.362.964v15.672h-2.17v-24.85h2.17v7.52zM171.386 14.233c.02.325-.1.644-.327.876-.229.233-.545.359-.871.346-.33.012-.648-.113-.882-.344-.233-.232-.36-.55-.349-.878-.011-.325.116-.64.35-.865.236-.226.555-.342.88-.32.322-.018.636.1.864.327.23.226.35.538.335.858m-2.297 4.977h2.165v18.068h-2.165V19.21zM176.445 20.626c1.484-.795 3.723-1.69 5.397-1.69 3.396 0 6.158 1.511 6.158 5.793v12.549h-2.165V24.824c0-2.976-1.584-4.155-4.278-4.155-1.526 0-3.527.874-4.753 1.474v15.135h-2.165V19.22h1.743l.063 1.406zM55.846 11.732L52.086 11.732 52.086 37.125 65.958 37.125 65.958 33.613 55.846 33.613zM70.114 11.405c-.527-.025-1.04.17-1.418.538-.377.367-.585.874-.572 1.4-.01.528.196 1.036.57 1.408.375.372.887.575 1.415.562 1.082 0 1.96-.875 1.96-1.954s-.878-1.954-1.96-1.954M68.256 19.162H71.937V37.125H68.256zM93.24 18.9c-2.038.04-4.033.583-5.81 1.579-1.18-1.107-2.766-1.679-4.383-1.58-1.54.11-3.051.465-4.478 1.053v-.795h-3.21v17.968h3.664V22.796c1.2-.422 2.462-.646 3.734-.663 2.757 0 2.64 1.548 2.64 2.696v12.296h3.665v-11.39c.006-.88-.049-1.76-.163-2.634 1.9-.879 2.857-1.005 3.855-1.005 1.99 0 2.54 1.153 2.54 3.475v11.533h3.665V25.42c0-3.913-1.954-6.52-5.714-6.52M115.969 29.937v-4.213c0-4.297-2.64-6.846-7.072-6.846-4.594 0-7.45 2.633-7.45 6.94v6.004c0 3.955 2.581 5.677 6.912 5.677 2.334.066 4.62-.678 6.464-2.106l-2.224-2.212c-1.227.756-2.645 1.145-4.087 1.122-3.079 0-3.433-1.66-3.433-2.907v-1.46h10.89zm-10.842-4.213c0-3.16 2.334-3.607 3.723-3.607 1.621 0 3.554.61 3.554 3.533v1.29h-7.277v-1.216zM127.73 35.635c-3.618 0-6.174-1.954-6.174-6.02v-8.773c0-4.065 2.556-6.014 6.173-6.014 2.112 0 3.855.759 4.88 2.138l1.362-1.358c-1.315-1.749-3.485-2.791-6.395-2.791-4.864 0-8.26 2.664-8.26 8.025v8.774c0 5.36 3.396 8.036 8.26 8.036 2.81 0 4.927-.974 6.258-2.633l-1.363-1.354c-1.056 1.259-2.698 1.954-4.752 1.954M158.427 18.941c-1.606-.059-3.196.328-4.594 1.117l1.256 1.248c.996-.394 2.061-.585 3.132-.564 4.557 0 5.228 2.244 5.28 4.571-1.348-.191-2.708-.3-4.07-.326-3.808 0-7.394 1.143-7.394 5.792 0 4.424 2.704 6.894 6.422 6.894 2.255 0 3.981-.964 5.407-1.76l.043 1.454h1.748V26.103c0-3.539-.719-7.162-7.24-7.162m5.074 15.388c-1.172.621-2.292 1.38-4.715 1.58-2.873.22-4.716-1.954-4.716-5.135 0-3.339 2.582-4.17 5.65-4.17 1.266.018 2.529.116 3.781.294v7.43z" transform="translate(-691 -1124) translate(691 1124)"/>
                <path fill="#28EB9B" d="M35.477 22.059c0-7.041-2.477-10.5-5.777-12.865l8.618-9.18h-5.94L2.925 31.28l-.085 1.458c0 7.041 2.482 10.501 5.777 12.866L0 54.782h5.941l29.441-31.264.095-1.46zm-24.076 20.58c-2.64-1.807-4.256-4.213-4.372-9.295L26.933 12.16c2.64 1.806 4.25 4.212 4.367 9.294L11.4 42.64zM22.745 52.85l2.297-3.723c3.385-1.607 7.737-4.74 9.569-10.722.576-1.885.866-6.94.866-9.242v-3.065l-4.225 4.54c0 .126 0 .4-.042.552-.142 1.67-.528 6.114-1.056 7.373-1.496 3.273-4.17 5.867-7.494 7.267-.375.166-.692.441-.908.79l-2.566 4.165-2.64-4.307-2.91 3.128 2.006 3.26c.776 1.213 2.12 1.947 3.562 1.947 1.443 0 2.786-.734 3.562-1.947M15.573 1.948L13.281 5.67c-3.39 1.58-7.741 4.74-9.569 10.721-.58 1.886-.87 6.941-.87 9.242V28.7l4.224-4.539c0-.126 0-.4.037-.553.148-1.67.528-6.114 1.082-7.373 1.491-3.271 4.16-5.865 7.478-7.267.374-.166.69-.441.903-.79l2.572-4.165 2.64 4.308 2.915-3.129-1.985-3.243C21.932.734 20.588 0 19.146 0c-1.443 0-2.786.734-3.562 1.948" transform="translate(-691 -1124) translate(691 1124)"/>
            </g>
        </g>
    </g>
</svg>
