<?xml version="1.0" encoding="UTF-8"?><svg id="Layer_2" xmlns="http://www.w3.org/2000/svg" viewBox="0 0 224.66 32.4"><defs><style>.cls-1{fill:#00d07e;}.cls-2{fill:#28133e;}</style></defs><g id="Layer_1-2"><path class="cls-1" d="m24.6,12.15c-.65-2.72-3.17-4.45-6.47-4.45-5.83,0-9.75,4.95-9.75,10.52,0,3.93,2.42,6.5,6.61,6.5s6.67-1.71,8.01-4.29h-8l1.12-5.21h16.8c-1.59,11.02-8.46,17.2-18.89,17.2-8.28,0-14.04-5.76-14.04-13.57C0,8.36,8.29,0,19.11,0c6.43,0,11.64,3.63,13.39,8.45l-7.91,3.7Z"/><path class="cls-1" d="m31.5,18.68C31.5,7.77,40.22,0,51.15,0c8.66,0,14.43,5.8,14.43,13.69,0,10.94-8.66,18.71-19.59,18.71-8.69,0-14.49-5.83-14.49-13.72Zm25.59-4.22c0-4.13-2.82-6.82-7.1-6.82-5.77,0-10,5-10,10.28,0,4.11,2.82,6.85,7.13,6.85,5.83,0,9.97-4.99,9.97-10.31Z"/><path class="cls-2" d="m65.75,24.48c0-.63.07-1.31.2-2.01h2.03c-.12.59-.18,1.13-.18,1.66,0,3.83,3.06,6,7.53,6,5.65,0,9.9-3.51,9.9-8.18,0-3.5-3.58-4.43-7.44-5.29-4.08-.94-8.57-2.04-8.57-6.53,0-5.94,4.94-9.78,11.8-9.78,5.21,0,8.3,2.66,8.3,6.9,0,.58-.09,1.23-.19,1.87h-1.98c.11-.52.16-1.02.16-1.51,0-3.31-2.6-5.36-6.65-5.36-5.51,0-9.41,3.04-9.41,7.45,0,3.39,3.62,4.28,7.42,5.14,4.17.95,8.63,2.08,8.63,6.71,0,6.2-5.26,10.52-12.3,10.52-5.71,0-9.26-2.85-9.26-7.59Z"/><path class="cls-2" d="m98.05,2.65l-2.41,12h13.68l-.37,1.83h-13.68l-2.66,13.25h15.29l-.37,1.91h-17.29L96.42.76h16.81l-.37,1.89h-14.81Z"/><path class="cls-2" d="m150.38.76l-.84,30.88h-1.96l.7-27.16-16.69,25.9h-.71l-6.33-25.95-10.19,27.21h-2.11L123.82.76h1.82l6.23,25.88L148.5.76h1.89Z"/><path class="cls-2" d="m177.48,21.71c0,5.46-4.49,9.93-10.61,9.93h-12.24l6.2-30.88h11.94c4.05,0,6.76,2.73,6.76,6.32s-2.8,7.2-6.04,8.46c2.5.95,3.99,3.3,3.99,6.18Zm-2.1.04c0-3.1-2.21-5.36-5.5-5.36h-10.2l-2.67,13.33h10c4.92,0,8.36-3.73,8.36-7.97Zm-15.32-7.22h10.18c3.67,0,7.16-3.45,7.16-7.14,0-2.73-2.02-4.73-4.98-4.73h-9.99l-2.38,11.87Z"/><path class="cls-2" d="m197.51,29.79l-.35,1.85h-16.74l6.18-30.88h1.99l-5.81,29.03h14.73Z"/><path class="cls-2" d="m209.47,2.65l-2.41,12h13.68l-.37,1.83h-13.68l-2.66,13.25h15.29l-.37,1.91h-17.29l6.18-30.88h16.81l-.37,1.89h-14.81Z"/></g></svg>